<mxfile host="Electron" modified="2024-06-11T12:50:04.278Z" agent="Mozilla/5.0 (Windows NT 10.0; Win64; x64) AppleWebKit/537.36 (KHTML, like Gecko) draw.io/21.2.1 Chrome/112.0.5615.87 Electron/24.1.2 Safari/537.36" etag="wQhLL0H0D0kdN5bjY08f" version="21.2.1" type="device">
  <diagram name="Page-1" id="1KvLHjhDO8Ya7sMIbihE">
    <mxGraphModel dx="1548" dy="902" grid="1" gridSize="10" guides="0" tooltips="1" connect="0" arrows="0" fold="1" page="1" pageScale="1" pageWidth="1169" pageHeight="827" math="0" shadow="0">
      <root>
        <mxCell id="0" />
        <mxCell id="1" parent="0" />
        <mxCell id="gW3RS581xUKZD0ln1KTk-149" value="" style="rounded=0;whiteSpace=wrap;html=1;" parent="1" vertex="1">
          <mxGeometry x="100.5" y="50" width="319.5" height="179" as="geometry" />
        </mxCell>
        <mxCell id="gW3RS581xUKZD0ln1KTk-156" value="" style="ellipse;whiteSpace=wrap;html=1;aspect=fixed;" parent="1" vertex="1">
          <mxGeometry x="385" y="119" width="20.58" height="20.58" as="geometry" />
        </mxCell>
        <mxCell id="gW3RS581xUKZD0ln1KTk-175" value="flexbox (1)" style="text;html=1;strokeColor=none;fillColor=none;align=center;verticalAlign=middle;whiteSpace=wrap;rounded=0;fontSize=12;rotation=-90;" parent="1" vertex="1">
          <mxGeometry x="21.560000000000002" y="135.36" width="177" height="13.12" as="geometry" />
        </mxCell>
        <mxCell id="gW3RS581xUKZD0ln1KTk-182" value="&lt;b style=&quot;font-size: 12px;&quot;&gt;display&lt;/b&gt;:&amp;nbsp; flex&amp;nbsp; &amp;nbsp;|&amp;nbsp; &amp;nbsp;inline-flex" style="text;html=1;strokeColor=none;fillColor=none;align=left;verticalAlign=middle;whiteSpace=wrap;rounded=0;fontSize=12;" parent="1" vertex="1">
          <mxGeometry x="132.5" y="53.42" width="229.5" height="20" as="geometry" />
        </mxCell>
        <mxCell id="gW3RS581xUKZD0ln1KTk-183" value="&lt;div style=&quot;font-size: 12px;&quot;&gt;&lt;b style=&quot;font-size: 12px;&quot;&gt;flex-direction&lt;/b&gt;:&amp;nbsp;&lt;span style=&quot;background-color: initial; font-size: 12px;&quot;&gt;&lt;u&gt;row&lt;/u&gt;&amp;nbsp; &amp;nbsp;|&amp;nbsp; &amp;nbsp;&lt;/span&gt;&lt;span style=&quot;background-color: initial; font-size: 12px;&quot;&gt;row-reverse&lt;/span&gt;&lt;/div&gt;&lt;div style=&quot;font-size: 12px;&quot;&gt;&lt;span style=&quot;background-color: initial; font-size: 12px;&quot;&gt;&amp;nbsp; &amp;nbsp; &amp;nbsp; &amp;nbsp; &amp;nbsp; &amp;nbsp; &amp;nbsp; &amp;nbsp; &amp;nbsp; &amp;nbsp; &amp;nbsp; &amp;nbsp; column&amp;nbsp; &amp;nbsp;|&amp;nbsp; &amp;nbsp;&lt;/span&gt;&lt;span style=&quot;background-color: initial; font-size: 12px;&quot;&gt;column-reverse&lt;/span&gt;&lt;/div&gt;" style="text;html=1;strokeColor=none;fillColor=none;align=left;verticalAlign=middle;whiteSpace=wrap;rounded=0;fontSize=12;" parent="1" vertex="1">
          <mxGeometry x="132.5" y="89" width="259.5" height="20" as="geometry" />
        </mxCell>
        <mxCell id="gW3RS581xUKZD0ln1KTk-184" value="&lt;div style=&quot;font-size: 12px;&quot;&gt;&lt;b style=&quot;font-size: 12px;&quot;&gt;flex-wrap&lt;/b&gt;:&amp;nbsp;&lt;span style=&quot;background-color: initial; font-size: 12px;&quot;&gt;&lt;u&gt;nowrap&lt;/u&gt;&amp;nbsp; |&amp;nbsp;&amp;nbsp;&lt;/span&gt;&lt;span style=&quot;background-color: initial; font-size: 12px;&quot;&gt;wrap&amp;nbsp; |&amp;nbsp;&amp;nbsp;&lt;/span&gt;&lt;span style=&quot;background-color: initial; font-size: 12px;&quot;&gt;wrap-reverse&lt;/span&gt;&lt;/div&gt;" style="text;html=1;strokeColor=none;fillColor=none;align=left;verticalAlign=middle;whiteSpace=wrap;rounded=0;fontSize=12;" parent="1" vertex="1">
          <mxGeometry x="132.5" y="119" width="237.5" height="20" as="geometry" />
        </mxCell>
        <mxCell id="gW3RS581xUKZD0ln1KTk-185" value="&lt;div style=&quot;font-size: 12px;&quot;&gt;&lt;b style=&quot;font-size: 12px;&quot;&gt;flex-flow:&amp;nbsp;&lt;/b&gt;&lt;b style=&quot;background-color: initial; font-size: 12px;&quot;&gt;flex-direction flex-wrap&lt;/b&gt;&lt;/div&gt;" style="text;html=1;strokeColor=none;fillColor=none;align=left;verticalAlign=middle;whiteSpace=wrap;rounded=0;fontSize=12;" parent="1" vertex="1">
          <mxGeometry x="132.5" y="149" width="200" height="20" as="geometry" />
        </mxCell>
        <mxCell id="gW3RS581xUKZD0ln1KTk-186" value="&lt;div style=&quot;font-size: 12px;&quot;&gt;&lt;b style=&quot;font-size: 12px;&quot;&gt;row-gap,&amp;nbsp;&lt;/b&gt;&lt;b style=&quot;background-color: initial; font-size: 12px;&quot;&gt;column-gap: &lt;/b&gt;&lt;span style=&quot;background-color: initial; font-size: 12px;&quot;&gt;число&lt;/span&gt;&lt;/div&gt;" style="text;html=1;strokeColor=none;fillColor=none;align=left;verticalAlign=middle;whiteSpace=wrap;rounded=0;fontSize=12;" parent="1" vertex="1">
          <mxGeometry x="132.5" y="177" width="200" height="20" as="geometry" />
        </mxCell>
        <mxCell id="gW3RS581xUKZD0ln1KTk-187" value="&lt;div style=&quot;font-size: 12px;&quot;&gt;&lt;b style=&quot;font-size: 12px;&quot;&gt;gap:&amp;nbsp;&lt;/b&gt;&lt;b style=&quot;background-color: initial; font-size: 12px;&quot;&gt;row-gap column-gap&lt;/b&gt;&lt;/div&gt;" style="text;html=1;strokeColor=none;fillColor=none;align=left;verticalAlign=middle;whiteSpace=wrap;rounded=0;fontSize=12;" parent="1" vertex="1">
          <mxGeometry x="132.5" y="203" width="200" height="20" as="geometry" />
        </mxCell>
        <mxCell id="rAkCXhPuqPbyu8A7eklI-6" value="" style="rounded=0;whiteSpace=wrap;html=1;" parent="1" vertex="1">
          <mxGeometry x="100" y="229" width="319.5" height="179" as="geometry" />
        </mxCell>
        <mxCell id="rAkCXhPuqPbyu8A7eklI-7" value="" style="ellipse;whiteSpace=wrap;html=1;aspect=fixed;" parent="1" vertex="1">
          <mxGeometry x="384.5" y="298" width="20.58" height="20.58" as="geometry" />
        </mxCell>
        <mxCell id="rAkCXhPuqPbyu8A7eklI-8" value="" style="rounded=0;whiteSpace=wrap;html=1;" parent="1" vertex="1">
          <mxGeometry x="100" y="408" width="319.5" height="179" as="geometry" />
        </mxCell>
        <mxCell id="rAkCXhPuqPbyu8A7eklI-9" value="" style="ellipse;whiteSpace=wrap;html=1;aspect=fixed;" parent="1" vertex="1">
          <mxGeometry x="384.5" y="477" width="20.58" height="20.58" as="geometry" />
        </mxCell>
        <mxCell id="rAkCXhPuqPbyu8A7eklI-10" value="" style="rounded=0;whiteSpace=wrap;html=1;" parent="1" vertex="1">
          <mxGeometry x="100" y="587" width="319.5" height="179" as="geometry" />
        </mxCell>
        <mxCell id="rAkCXhPuqPbyu8A7eklI-11" value="" style="ellipse;whiteSpace=wrap;html=1;aspect=fixed;" parent="1" vertex="1">
          <mxGeometry x="384.5" y="656" width="20.58" height="20.58" as="geometry" />
        </mxCell>
        <mxCell id="rAkCXhPuqPbyu8A7eklI-14" value="" style="endArrow=none;html=1;rounded=0;" parent="1" edge="1">
          <mxGeometry width="50" height="50" relative="1" as="geometry">
            <mxPoint x="120" y="810" as="sourcePoint" />
            <mxPoint x="120" y="20" as="targetPoint" />
          </mxGeometry>
        </mxCell>
        <mxCell id="zjbpPbley1TwkYgg-s3r-1" value="" style="rounded=0;whiteSpace=wrap;html=1;" parent="1" vertex="1">
          <mxGeometry x="419.94" y="50" width="319.5" height="179" as="geometry" />
        </mxCell>
        <mxCell id="zjbpPbley1TwkYgg-s3r-2" value="" style="ellipse;whiteSpace=wrap;html=1;aspect=fixed;" parent="1" vertex="1">
          <mxGeometry x="704.44" y="119" width="20.58" height="20.58" as="geometry" />
        </mxCell>
        <mxCell id="zjbpPbley1TwkYgg-s3r-3" value="переполнение, видимость" style="text;html=1;strokeColor=none;fillColor=none;align=center;verticalAlign=middle;whiteSpace=wrap;rounded=0;fontSize=12;rotation=-90;" parent="1" vertex="1">
          <mxGeometry x="341" y="135.36" width="177" height="13.12" as="geometry" />
        </mxCell>
        <mxCell id="zjbpPbley1TwkYgg-s3r-10" value="" style="rounded=0;whiteSpace=wrap;html=1;" parent="1" vertex="1">
          <mxGeometry x="419.44" y="229" width="319.5" height="179" as="geometry" />
        </mxCell>
        <mxCell id="zjbpPbley1TwkYgg-s3r-11" value="" style="ellipse;whiteSpace=wrap;html=1;aspect=fixed;" parent="1" vertex="1">
          <mxGeometry x="703.94" y="298" width="20.58" height="20.58" as="geometry" />
        </mxCell>
        <mxCell id="zjbpPbley1TwkYgg-s3r-12" value="" style="rounded=0;whiteSpace=wrap;html=1;" parent="1" vertex="1">
          <mxGeometry x="419.44" y="408" width="319.5" height="179" as="geometry" />
        </mxCell>
        <mxCell id="zjbpPbley1TwkYgg-s3r-13" value="" style="ellipse;whiteSpace=wrap;html=1;aspect=fixed;" parent="1" vertex="1">
          <mxGeometry x="703.94" y="477" width="20.58" height="20.58" as="geometry" />
        </mxCell>
        <mxCell id="zjbpPbley1TwkYgg-s3r-14" value="" style="rounded=0;whiteSpace=wrap;html=1;" parent="1" vertex="1">
          <mxGeometry x="419.44" y="587" width="319.5" height="179" as="geometry" />
        </mxCell>
        <mxCell id="zjbpPbley1TwkYgg-s3r-15" value="" style="ellipse;whiteSpace=wrap;html=1;aspect=fixed;" parent="1" vertex="1">
          <mxGeometry x="703.94" y="656" width="20.58" height="20.58" as="geometry" />
        </mxCell>
        <mxCell id="zjbpPbley1TwkYgg-s3r-16" value="" style="endArrow=none;html=1;rounded=0;" parent="1" edge="1">
          <mxGeometry width="50" height="50" relative="1" as="geometry">
            <mxPoint x="439.44" y="810" as="sourcePoint" />
            <mxPoint x="439.44" y="20" as="targetPoint" />
          </mxGeometry>
        </mxCell>
        <mxCell id="zjbpPbley1TwkYgg-s3r-17" value="" style="rounded=0;whiteSpace=wrap;html=1;" parent="1" vertex="1">
          <mxGeometry x="738.94" y="50" width="319.5" height="179" as="geometry" />
        </mxCell>
        <mxCell id="zjbpPbley1TwkYgg-s3r-18" value="" style="ellipse;whiteSpace=wrap;html=1;aspect=fixed;" parent="1" vertex="1">
          <mxGeometry x="1023.44" y="119" width="20.58" height="20.58" as="geometry" />
        </mxCell>
        <mxCell id="zjbpPbley1TwkYgg-s3r-19" value="закругление краев" style="text;html=1;strokeColor=none;fillColor=none;align=center;verticalAlign=middle;whiteSpace=wrap;rounded=0;fontSize=12;rotation=-90;" parent="1" vertex="1">
          <mxGeometry x="660" y="135.36" width="177" height="13.12" as="geometry" />
        </mxCell>
        <mxCell id="zjbpPbley1TwkYgg-s3r-26" value="" style="rounded=0;whiteSpace=wrap;html=1;" parent="1" vertex="1">
          <mxGeometry x="738.44" y="229" width="319.5" height="179" as="geometry" />
        </mxCell>
        <mxCell id="zjbpPbley1TwkYgg-s3r-27" value="" style="ellipse;whiteSpace=wrap;html=1;aspect=fixed;" parent="1" vertex="1">
          <mxGeometry x="1022.94" y="298" width="20.58" height="20.58" as="geometry" />
        </mxCell>
        <mxCell id="zjbpPbley1TwkYgg-s3r-28" value="" style="rounded=0;whiteSpace=wrap;html=1;" parent="1" vertex="1">
          <mxGeometry x="738.44" y="408" width="319.5" height="179" as="geometry" />
        </mxCell>
        <mxCell id="zjbpPbley1TwkYgg-s3r-29" value="" style="ellipse;whiteSpace=wrap;html=1;aspect=fixed;" parent="1" vertex="1">
          <mxGeometry x="1022.94" y="477" width="20.58" height="20.58" as="geometry" />
        </mxCell>
        <mxCell id="zjbpPbley1TwkYgg-s3r-30" value="" style="rounded=0;whiteSpace=wrap;html=1;" parent="1" vertex="1">
          <mxGeometry x="738.44" y="587" width="319.5" height="179" as="geometry" />
        </mxCell>
        <mxCell id="zjbpPbley1TwkYgg-s3r-31" value="" style="ellipse;whiteSpace=wrap;html=1;aspect=fixed;" parent="1" vertex="1">
          <mxGeometry x="1022.94" y="656" width="20.58" height="20.58" as="geometry" />
        </mxCell>
        <mxCell id="zjbpPbley1TwkYgg-s3r-32" value="" style="endArrow=none;html=1;rounded=0;" parent="1" edge="1">
          <mxGeometry width="50" height="50" relative="1" as="geometry">
            <mxPoint x="758.44" y="810" as="sourcePoint" />
            <mxPoint x="758.44" y="20" as="targetPoint" />
          </mxGeometry>
        </mxCell>
        <mxCell id="zjbpPbley1TwkYgg-s3r-33" value="блочная модель, размеры" style="text;html=1;strokeColor=none;fillColor=none;align=center;verticalAlign=middle;whiteSpace=wrap;rounded=0;fontSize=12;rotation=-90;" parent="1" vertex="1">
          <mxGeometry x="340" y="309" width="177" height="13.12" as="geometry" />
        </mxCell>
        <mxCell id="zjbpPbley1TwkYgg-s3r-34" value="псевдоклассы" style="text;html=1;strokeColor=none;fillColor=none;align=center;verticalAlign=middle;whiteSpace=wrap;rounded=0;fontSize=12;rotation=-90;" parent="1" vertex="1">
          <mxGeometry x="660" y="309" width="177" height="13.12" as="geometry" />
        </mxCell>
        <mxCell id="zjbpPbley1TwkYgg-s3r-35" value="flexbox (2)" style="text;html=1;strokeColor=none;fillColor=none;align=center;verticalAlign=middle;whiteSpace=wrap;rounded=0;fontSize=12;rotation=-90;" parent="1" vertex="1">
          <mxGeometry x="20" y="309" width="177" height="13.12" as="geometry" />
        </mxCell>
        <mxCell id="zjbpPbley1TwkYgg-s3r-36" value="псевдоэлементы" style="text;html=1;strokeColor=none;fillColor=none;align=center;verticalAlign=middle;whiteSpace=wrap;rounded=0;fontSize=12;rotation=-90;" parent="1" vertex="1">
          <mxGeometry x="660" y="489" width="177" height="13.12" as="geometry" />
        </mxCell>
        <mxCell id="zjbpPbley1TwkYgg-s3r-37" value="отступы" style="text;html=1;strokeColor=none;fillColor=none;align=center;verticalAlign=middle;whiteSpace=wrap;rounded=0;fontSize=12;rotation=-90;" parent="1" vertex="1">
          <mxGeometry x="660" y="662.64" width="177" height="13.12" as="geometry" />
        </mxCell>
        <mxCell id="zjbpPbley1TwkYgg-s3r-38" value="рамка" style="text;html=1;strokeColor=none;fillColor=none;align=center;verticalAlign=middle;whiteSpace=wrap;rounded=0;fontSize=12;rotation=-90;" parent="1" vertex="1">
          <mxGeometry x="340" y="489" width="177" height="13.12" as="geometry" />
        </mxCell>
        <mxCell id="zjbpPbley1TwkYgg-s3r-39" value="обводка" style="text;html=1;strokeColor=none;fillColor=none;align=center;verticalAlign=middle;whiteSpace=wrap;rounded=0;fontSize=12;rotation=-90;" parent="1" vertex="1">
          <mxGeometry x="340" y="662.64" width="177" height="13.12" as="geometry" />
        </mxCell>
        <mxCell id="zjbpPbley1TwkYgg-s3r-40" value="flexbox (3)" style="text;html=1;strokeColor=none;fillColor=none;align=center;verticalAlign=middle;whiteSpace=wrap;rounded=0;fontSize=12;rotation=-90;" parent="1" vertex="1">
          <mxGeometry x="20" y="489" width="177" height="13.12" as="geometry" />
        </mxCell>
        <mxCell id="zjbpPbley1TwkYgg-s3r-41" value="позиционирование" style="text;html=1;strokeColor=none;fillColor=none;align=center;verticalAlign=middle;whiteSpace=wrap;rounded=0;fontSize=12;rotation=-90;" parent="1" vertex="1">
          <mxGeometry x="20" y="662.64" width="177" height="13.12" as="geometry" />
        </mxCell>
        <mxCell id="RrGyain6pzI4IQnfve1N-1" value="&lt;div style=&quot;font-size: 12px;&quot;&gt;&lt;b style=&quot;font-size: 12px;&quot;&gt;justify-content,&amp;nbsp;&lt;/b&gt;&lt;/div&gt;&lt;div style=&quot;font-size: 12px;&quot;&gt;&lt;b style=&quot;background-color: initial; font-size: 12px;&quot;&gt;align-content:&lt;/b&gt;&lt;/div&gt;&lt;div style=&quot;font-size: 12px;&quot;&gt;&lt;b style=&quot;font-size: 12px;&quot;&gt;&amp;nbsp; &amp;nbsp; &lt;/b&gt;&lt;u style=&quot;font-size: 12px;&quot;&gt;flex-start&lt;/u&gt;&amp;nbsp; &amp;nbsp; |&amp;nbsp; &amp;nbsp;&amp;nbsp;&lt;span style=&quot;background-color: initial; font-size: 12px;&quot;&gt;flex-end&amp;nbsp; &amp;nbsp; |&amp;nbsp; &amp;nbsp;&amp;nbsp;&lt;/span&gt;&lt;span style=&quot;background-color: initial; font-size: 12px;&quot;&gt;center&amp;nbsp; &amp;nbsp; |&lt;/span&gt;&lt;/div&gt;&lt;div style=&quot;font-size: 12px;&quot;&gt;&amp;nbsp; &amp;nbsp; space-between&amp;nbsp; &amp;nbsp; |&amp;nbsp; &amp;nbsp;&amp;nbsp;&lt;/div&gt;&lt;div style=&quot;font-size: 12px;&quot;&gt;&lt;span style=&quot;background-color: initial; font-size: 12px;&quot;&gt;&amp;nbsp; &amp;nbsp; space-around&amp;nbsp; &amp;nbsp; |&lt;/span&gt;&lt;/div&gt;&lt;div style=&quot;font-size: 12px;&quot;&gt;&amp;nbsp; &amp;nbsp; space-evenly&lt;/div&gt;" style="text;html=1;strokeColor=none;fillColor=none;align=left;verticalAlign=middle;whiteSpace=wrap;rounded=0;fontSize=12;" vertex="1" parent="1">
          <mxGeometry x="134" y="250" width="240" height="70" as="geometry" />
        </mxCell>
        <mxCell id="RrGyain6pzI4IQnfve1N-2" value="&lt;div style=&quot;font-size: 12px;&quot;&gt;&lt;b style=&quot;font-size: 12px;&quot;&gt;align-items:&amp;nbsp; &amp;nbsp;&lt;/b&gt;&lt;span style=&quot;background-color: initial; font-size: 12px;&quot;&gt;&lt;u style=&quot;font-size: 12px;&quot;&gt;stretch&lt;/u&gt;&amp;nbsp; &amp;nbsp;|&amp;nbsp; &amp;nbsp;&lt;/span&gt;&lt;span style=&quot;background-color: initial; font-size: 12px;&quot;&gt;flex-start&amp;nbsp; &amp;nbsp;|&amp;nbsp; &amp;nbsp;&lt;/span&gt;&lt;span style=&quot;background-color: initial; font-size: 12px;&quot;&gt;flex-end&lt;/span&gt;&lt;/div&gt;&lt;div style=&quot;font-size: 12px;&quot;&gt;&amp;nbsp; &amp;nbsp; &amp;nbsp; &amp;nbsp; &amp;nbsp; &amp;nbsp; &amp;nbsp; &amp;nbsp; &amp;nbsp; &amp;nbsp; &amp;nbsp; &amp;nbsp;center&amp;nbsp; &amp;nbsp; |&amp;nbsp; &amp;nbsp;&lt;span style=&quot;background-color: initial; font-size: 12px;&quot;&gt;baseline&lt;/span&gt;&lt;/div&gt;" style="text;html=1;strokeColor=none;fillColor=none;align=left;verticalAlign=middle;whiteSpace=wrap;rounded=0;fontSize=12;" vertex="1" parent="1">
          <mxGeometry x="134" y="350" width="266" height="30" as="geometry" />
        </mxCell>
        <mxCell id="RrGyain6pzI4IQnfve1N-3" value="&lt;div style=&quot;font-size: 12px;&quot;&gt;&lt;b style=&quot;font-size: 12px;&quot;&gt;flex-grow,&amp;nbsp;&lt;/b&gt;&lt;/div&gt;&lt;div style=&quot;font-size: 12px;&quot;&gt;&lt;b style=&quot;background-color: initial; font-size: 12px;&quot;&gt;flex-shrink:&amp;nbsp;&amp;nbsp;&lt;/b&gt;&lt;span style=&quot;background-color: initial; font-size: 12px;&quot;&gt;коэфф &amp;gt;= 0&lt;/span&gt;&lt;/div&gt;" style="text;html=1;strokeColor=none;fillColor=none;align=left;verticalAlign=middle;whiteSpace=wrap;rounded=0;fontSize=12;" vertex="1" parent="1">
          <mxGeometry x="140" y="430" width="190" height="20" as="geometry" />
        </mxCell>
        <mxCell id="RrGyain6pzI4IQnfve1N-4" value="&lt;div style=&quot;font-size: 12px;&quot;&gt;&lt;b style=&quot;font-size: 12px;&quot;&gt;flex-basis:&amp;nbsp;&amp;nbsp;&lt;/b&gt;&lt;span style=&quot;background-color: initial; font-size: 12px;&quot;&gt;&lt;u style=&quot;font-size: 12px;&quot;&gt;auto&lt;/u&gt;&amp;nbsp; |&amp;nbsp;&amp;nbsp;&lt;/span&gt;&lt;span style=&quot;background-color: initial; font-size: 12px;&quot;&gt;100px&lt;/span&gt;&lt;/div&gt;" style="text;html=1;strokeColor=none;fillColor=none;align=left;verticalAlign=middle;whiteSpace=wrap;rounded=0;fontSize=12;" vertex="1" parent="1">
          <mxGeometry x="140" y="478" width="190" height="20" as="geometry" />
        </mxCell>
        <mxCell id="RrGyain6pzI4IQnfve1N-5" value="&lt;div style=&quot;font-size: 12px;&quot;&gt;&lt;b style=&quot;font-size: 12px;&quot;&gt;flex: flex-&lt;/b&gt;&lt;b style=&quot;background-color: initial; font-size: 12px;&quot;&gt;grow&amp;nbsp; flex-shrink&amp;nbsp; flex-basis&lt;/b&gt;&lt;/div&gt;" style="text;html=1;strokeColor=none;fillColor=none;align=left;verticalAlign=middle;whiteSpace=wrap;rounded=0;fontSize=12;" vertex="1" parent="1">
          <mxGeometry x="140" y="518" width="220" height="20" as="geometry" />
        </mxCell>
        <mxCell id="RrGyain6pzI4IQnfve1N-6" value="&lt;div style=&quot;font-size: 12px;&quot;&gt;&lt;b style=&quot;font-size: 12px;&quot;&gt;order:&amp;nbsp;&lt;/b&gt;&lt;span style=&quot;background-color: initial; font-size: 12px;&quot;&gt;&lt;u style=&quot;font-size: 12px;&quot;&gt;0&lt;/u&gt;&amp;nbsp; |&amp;nbsp;&amp;nbsp;&lt;/span&gt;&lt;span style=&quot;background-color: initial; font-size: 12px;&quot;&gt;-1&amp;nbsp; |&amp;nbsp;&amp;nbsp;&lt;/span&gt;&lt;span style=&quot;background-color: initial; font-size: 12px;&quot;&gt;1&lt;/span&gt;&lt;/div&gt;" style="text;html=1;strokeColor=none;fillColor=none;align=center;verticalAlign=middle;whiteSpace=wrap;rounded=0;fontSize=12;" vertex="1" parent="1">
          <mxGeometry x="134" y="559" width="110" height="10" as="geometry" />
        </mxCell>
        <mxCell id="RrGyain6pzI4IQnfve1N-7" value="&lt;b style=&quot;border-color: var(--border-color); font-size: 12px;&quot;&gt;position&lt;/b&gt;:&amp;nbsp;&amp;nbsp;&lt;u style=&quot;font-size: 12px;&quot;&gt;static&lt;/u&gt;&amp;nbsp; &amp;nbsp; |&amp;nbsp; &amp;nbsp; relative&amp;nbsp; &amp;nbsp; |&lt;br style=&quot;font-size: 12px;&quot;&gt;&amp;nbsp; &amp;nbsp; &amp;nbsp; &amp;nbsp; &amp;nbsp; &amp;nbsp; &amp;nbsp; &amp;nbsp; &amp;nbsp;absolute&amp;nbsp; &amp;nbsp; |&amp;nbsp; &amp;nbsp;fixed&amp;nbsp; &amp;nbsp; |&amp;nbsp; &amp;nbsp; sticky" style="text;html=1;strokeColor=none;fillColor=none;align=left;verticalAlign=middle;whiteSpace=wrap;rounded=0;fontSize=12;" vertex="1" parent="1">
          <mxGeometry x="140" y="600" width="250" height="30" as="geometry" />
        </mxCell>
        <mxCell id="RrGyain6pzI4IQnfve1N-8" value="&lt;div style=&quot;border-color: var(--border-color); font-size: 12px;&quot;&gt;&lt;b style=&quot;border-color: var(--border-color); font-size: 12px;&quot;&gt;z-index&lt;/b&gt;:&amp;nbsp;&amp;nbsp;&lt;span style=&quot;background-color: initial; font-size: 12px;&quot;&gt;auto&amp;nbsp; |&amp;nbsp;&amp;nbsp;&lt;/span&gt;&lt;span style=&quot;background-color: initial; font-size: 12px;&quot;&gt;число&lt;/span&gt;&lt;/div&gt;" style="text;html=1;strokeColor=none;fillColor=none;align=left;verticalAlign=middle;whiteSpace=wrap;rounded=0;fontSize=12;" vertex="1" parent="1">
          <mxGeometry x="140" y="730" width="200" height="24" as="geometry" />
        </mxCell>
        <mxCell id="RrGyain6pzI4IQnfve1N-9" value="&lt;div style=&quot;border-color: var(--border-color); font-size: 12px;&quot;&gt;&lt;b style=&quot;font-size: 12px;&quot;&gt;top, bottom, right, left&lt;/b&gt;:&amp;nbsp;&amp;nbsp;&lt;span style=&quot;background-color: initial; font-size: 12px;&quot;&gt;число&lt;/span&gt;&lt;/div&gt;" style="text;html=1;strokeColor=none;fillColor=none;align=left;verticalAlign=middle;whiteSpace=wrap;rounded=0;fontSize=12;" vertex="1" parent="1">
          <mxGeometry x="158" y="650" width="212" height="24" as="geometry" />
        </mxCell>
        <mxCell id="RrGyain6pzI4IQnfve1N-10" value="&lt;div style=&quot;border-color: var(--border-color); font-size: 12px;&quot;&gt;&lt;b style=&quot;border-color: var(--border-color); font-size: 12px;&quot;&gt;inset&lt;/b&gt;:&amp;nbsp;&amp;nbsp;&lt;span style=&quot;background-color: initial; font-size: 12px;&quot;&gt;число&amp;nbsp; |&amp;nbsp; верх право низ лево&amp;nbsp;&lt;/span&gt;&lt;/div&gt;" style="text;html=1;strokeColor=none;fillColor=none;align=left;verticalAlign=middle;whiteSpace=wrap;rounded=0;fontSize=12;" vertex="1" parent="1">
          <mxGeometry x="158" y="691" width="222" height="24" as="geometry" />
        </mxCell>
        <mxCell id="RrGyain6pzI4IQnfve1N-14" value="&lt;div style=&quot;border-color: var(--border-color); font-size: 12px;&quot;&gt;&lt;b style=&quot;border-color: var(--border-color); font-size: 12px;&quot;&gt;overflow,&lt;br style=&quot;border-color: var(--border-color); font-size: 12px;&quot;&gt;&lt;/b&gt;&lt;b style=&quot;border-color: var(--border-color); font-size: 12px;&quot;&gt;overflow-x, overflow-y&lt;/b&gt;:&lt;br style=&quot;border-color: var(--border-color); font-size: 12px;&quot;&gt;&amp;nbsp; &amp;nbsp; &lt;u style=&quot;font-size: 12px;&quot;&gt;visible&lt;/u&gt;&amp;nbsp; &amp;nbsp; |&amp;nbsp; &amp;nbsp; visible visible (для x, y)&lt;br style=&quot;border-color: var(--border-color); font-size: 12px;&quot;&gt;&amp;nbsp; &amp;nbsp; scroll&amp;nbsp; &amp;nbsp; &amp;nbsp; |&amp;nbsp; &amp;nbsp; auto&amp;nbsp; &amp;nbsp; |&amp;nbsp; &amp;nbsp; hidden&amp;nbsp; &amp;nbsp; |&amp;nbsp; &amp;nbsp; clip&lt;br style=&quot;font-size: 12px;&quot;&gt;&lt;/div&gt;" style="text;html=1;strokeColor=none;fillColor=none;align=left;verticalAlign=middle;whiteSpace=wrap;rounded=0;fontSize=12;" vertex="1" parent="1">
          <mxGeometry x="461" y="61" width="239" height="60" as="geometry" />
        </mxCell>
        <mxCell id="RrGyain6pzI4IQnfve1N-15" value="&lt;div style=&quot;border-color: var(--border-color); font-size: 12px;&quot;&gt;&lt;b style=&quot;border-color: var(--border-color); font-size: 12px;&quot;&gt;visibility:&amp;nbsp; &amp;nbsp;&amp;nbsp;&lt;/b&gt;&lt;u style=&quot;font-size: 12px;&quot;&gt;visible&lt;/u&gt;&amp;nbsp; &amp;nbsp; |&amp;nbsp; &amp;nbsp;&amp;nbsp;&lt;span style=&quot;font-size: 12px;&quot;&gt;hidden&lt;/span&gt;&lt;br style=&quot;font-size: 12px;&quot;&gt;&lt;/div&gt;" style="text;html=1;strokeColor=none;fillColor=none;align=left;verticalAlign=middle;whiteSpace=wrap;rounded=0;fontSize=12;" vertex="1" parent="1">
          <mxGeometry x="460" y="160" width="200" height="20" as="geometry" />
        </mxCell>
        <mxCell id="RrGyain6pzI4IQnfve1N-16" value="&lt;div style=&quot;border-color: var(--border-color); font-size: 12px;&quot;&gt;&lt;b style=&quot;border-color: var(--border-color); font-size: 12px;&quot;&gt;clip-path:&amp;nbsp; &amp;nbsp;&amp;nbsp;&lt;/b&gt;&lt;u style=&quot;font-size: 12px;&quot;&gt;none&lt;/u&gt;&amp;nbsp; &amp;nbsp; |&amp;nbsp; &amp;nbsp;&amp;nbsp;&lt;span style=&quot;font-size: 12px;&quot;&gt;circle&amp;nbsp; &amp;nbsp; |&amp;nbsp; &amp;nbsp;&amp;nbsp;&lt;/span&gt;&lt;span style=&quot;font-size: 12px;&quot;&gt;ellipse&lt;/span&gt;&lt;/div&gt;&lt;div style=&quot;border-color: var(--border-color); font-size: 12px;&quot;&gt;&lt;span style=&quot;font-size: 12px;&quot;&gt;&amp;nbsp; &amp;nbsp; &amp;nbsp; &amp;nbsp; &amp;nbsp; &amp;nbsp; &amp;nbsp; &amp;nbsp; &amp;nbsp; &amp;nbsp; polygon&amp;nbsp; &amp;nbsp; &amp;nbsp; |&amp;nbsp; &amp;nbsp;&amp;nbsp;&lt;/span&gt;&lt;span style=&quot;font-size: 12px;&quot;&gt;path&lt;/span&gt;&lt;br style=&quot;font-size: 12px;&quot;&gt;&lt;/div&gt;" style="text;html=1;strokeColor=none;fillColor=none;align=left;verticalAlign=middle;whiteSpace=wrap;rounded=0;fontSize=12;" vertex="1" parent="1">
          <mxGeometry x="460" y="190" width="260" height="20" as="geometry" />
        </mxCell>
        <mxCell id="RrGyain6pzI4IQnfve1N-17" value="&lt;div style=&quot;border-color: var(--border-color); font-size: 12px;&quot;&gt;&lt;div style=&quot;border-color: var(--border-color); font-size: 12px;&quot;&gt;&lt;b style=&quot;border-color: var(--border-color); font-size: 12px;&quot;&gt;display&lt;/b&gt;:&amp;nbsp;&amp;nbsp;&lt;span style=&quot;background-color: initial; font-size: 12px;&quot;&gt;inline&amp;nbsp; |&amp;nbsp;&amp;nbsp;&lt;/span&gt;&lt;span style=&quot;background-color: initial; font-size: 12px;&quot;&gt;block&amp;nbsp; |&amp;nbsp;&amp;nbsp;&lt;/span&gt;&lt;span style=&quot;background-color: initial; font-size: 12px;&quot;&gt;inline-block&amp;nbsp; |&amp;nbsp;&amp;nbsp;&lt;/span&gt;&lt;span style=&quot;background-color: initial; font-size: 12px;&quot;&gt;none&lt;/span&gt;&lt;/div&gt;&lt;div style=&quot;border-color: var(--border-color); font-size: 12px;&quot;&gt;&lt;/div&gt;&lt;div style=&quot;border-color: var(--border-color); font-size: 12px;&quot;&gt;&amp;nbsp; &amp;nbsp; &amp;nbsp; &amp;nbsp; &amp;nbsp; &amp;nbsp; &amp;nbsp; flex&amp;nbsp; &amp;nbsp;|&amp;nbsp; &amp;nbsp;&lt;span style=&quot;background-color: initial; font-size: 12px;&quot;&gt;inline-flex&lt;/span&gt;&lt;/div&gt;&lt;div style=&quot;border-color: var(--border-color); font-size: 12px;&quot;&gt;&lt;/div&gt;&lt;div style=&quot;border-color: var(--border-color); font-size: 12px;&quot;&gt;&amp;nbsp; &amp;nbsp; &amp;nbsp; &amp;nbsp; &amp;nbsp; &amp;nbsp; &amp;nbsp; grid&amp;nbsp; &amp;nbsp;|&amp;nbsp; &amp;nbsp;&lt;span style=&quot;background-color: initial; font-size: 12px;&quot;&gt;inline-grid&lt;/span&gt;&lt;/div&gt;&lt;/div&gt;" style="text;html=1;strokeColor=none;fillColor=none;align=left;verticalAlign=middle;whiteSpace=wrap;rounded=0;fontSize=12;" vertex="1" parent="1">
          <mxGeometry x="460" y="246" width="260" height="40" as="geometry" />
        </mxCell>
        <mxCell id="RrGyain6pzI4IQnfve1N-18" value="&lt;div style=&quot;border-color: var(--border-color); font-size: 12px;&quot;&gt;&lt;div style=&quot;border-color: var(--border-color); font-size: 12px;&quot;&gt;&lt;div style=&quot;border-color: var(--border-color); font-size: 12px;&quot;&gt;&lt;b style=&quot;font-size: 12px;&quot;&gt;box-sizing&lt;/b&gt;:&amp;nbsp; &amp;nbsp;&amp;nbsp;&lt;span style=&quot;background-color: initial; font-size: 12px;&quot;&gt;border-box&amp;nbsp; &amp;nbsp; |&amp;nbsp; &amp;nbsp;&amp;nbsp;&lt;/span&gt;&lt;span style=&quot;background-color: initial; font-size: 12px;&quot;&gt;&lt;u style=&quot;font-size: 12px;&quot;&gt;content-box&lt;/u&gt;&lt;/span&gt;&lt;/div&gt;&lt;/div&gt;&lt;/div&gt;" style="text;html=1;strokeColor=none;fillColor=none;align=left;verticalAlign=middle;whiteSpace=wrap;rounded=0;fontSize=12;" vertex="1" parent="1">
          <mxGeometry x="460" y="320" width="230" height="20" as="geometry" />
        </mxCell>
        <mxCell id="RrGyain6pzI4IQnfve1N-19" value="&lt;div style=&quot;border-color: var(--border-color); font-size: 12px;&quot;&gt;&lt;div style=&quot;border-color: var(--border-color); font-size: 12px;&quot;&gt;&lt;div style=&quot;border-color: var(--border-color); font-size: 12px;&quot;&gt;&lt;b style=&quot;background-color: initial; font-size: 12px;&quot;&gt;width,&amp;nbsp;&lt;/b&gt;&lt;span style=&quot;background-color: initial; font-size: 12px;&quot;&gt;&lt;b style=&quot;font-size: 12px;&quot;&gt;height&lt;/b&gt;:&lt;b style=&quot;font-size: 12px;&quot;&gt;&amp;nbsp; &lt;/b&gt;число&lt;/span&gt;&lt;br style=&quot;font-size: 12px;&quot;&gt;&lt;/div&gt;&lt;/div&gt;&lt;/div&gt;" style="text;html=1;strokeColor=none;fillColor=none;align=left;verticalAlign=middle;whiteSpace=wrap;rounded=0;fontSize=12;" vertex="1" parent="1">
          <mxGeometry x="461" y="370" width="190" height="20" as="geometry" />
        </mxCell>
        <mxCell id="RrGyain6pzI4IQnfve1N-20" value="&lt;div style=&quot;border-color: var(--border-color); font-size: 12px; text-align: left;&quot;&gt;&lt;b style=&quot;font-size: 12px;&quot;&gt;border&lt;/b&gt;: 1px solid black;&lt;/div&gt;&lt;div style=&quot;border-color: var(--border-color); font-size: 12px; text-align: left;&quot;&gt;&lt;b style=&quot;font-size: 12px;&quot;&gt;border-top&lt;/b&gt; (bottom, left, right):&amp;nbsp;&lt;span style=&quot;background-color: initial; font-size: 12px;&quot;&gt;1px solid black&lt;/span&gt;&lt;/div&gt;" style="text;html=1;strokeColor=none;fillColor=none;align=center;verticalAlign=middle;whiteSpace=wrap;rounded=0;fontSize=12;" vertex="1" parent="1">
          <mxGeometry x="444" y="415" width="263" height="30" as="geometry" />
        </mxCell>
        <mxCell id="RrGyain6pzI4IQnfve1N-21" value="&lt;div style=&quot;border-color: var(--border-color); font-size: 12px; text-align: left;&quot;&gt;&lt;div style=&quot;border-color: var(--border-color); font-size: 12px;&quot;&gt;Поддерж синтакс для одновр неск сторон:&lt;/div&gt;&lt;div style=&quot;border-color: var(--border-color); font-size: 12px;&quot;&gt;&lt;b style=&quot;font-size: 12px;&quot;&gt;border-width&lt;/b&gt;: 2px;&lt;/div&gt;&lt;div style=&quot;border-color: var(--border-color); font-size: 12px;&quot;&gt;&lt;b style=&quot;font-size: 12px;&quot;&gt;border-style&lt;/b&gt;:&amp;nbsp;&lt;span style=&quot;background-color: initial; font-size: 12px;&quot;&gt;solid |&amp;nbsp;&lt;/span&gt;&lt;span style=&quot;background-color: initial; font-size: 12px;&quot;&gt;dashed |&amp;nbsp;&lt;/span&gt;&lt;span style=&quot;background-color: initial; font-size: 12px;&quot;&gt;dotted |&amp;nbsp;&lt;/span&gt;&lt;span style=&quot;background-color: initial; font-size: 12px;&quot;&gt;double&lt;/span&gt;&lt;/div&gt;&lt;div style=&quot;border-color: var(--border-color); font-size: 12px;&quot;&gt;&lt;b style=&quot;font-size: 12px;&quot;&gt;border-color&lt;/b&gt;: black&amp;nbsp; |&amp;nbsp; #FF32D6&lt;/div&gt;&lt;/div&gt;" style="text;html=1;strokeColor=none;fillColor=none;align=center;verticalAlign=middle;whiteSpace=wrap;rounded=0;fontSize=12;" vertex="1" parent="1">
          <mxGeometry x="448" y="450" width="246" height="78" as="geometry" />
        </mxCell>
        <mxCell id="RrGyain6pzI4IQnfve1N-22" value="&lt;div style=&quot;border-color: var(--border-color); font-size: 12px; text-align: left;&quot;&gt;&lt;div style=&quot;border-color: var(--border-color); font-size: 12px;&quot;&gt;&lt;b style=&quot;font-size: 12px;&quot;&gt;border-top-width&lt;/b&gt;: 10px;&lt;br style=&quot;border-color: var(--border-color); font-size: 12px;&quot;&gt;&lt;/div&gt;&lt;div style=&quot;border-color: var(--border-color); font-size: 12px;&quot;&gt;&lt;b style=&quot;font-size: 12px;&quot;&gt;border-top-style&lt;/b&gt;: solid;&lt;/div&gt;&lt;div style=&quot;border-color: var(--border-color); font-size: 12px;&quot;&gt;&lt;b style=&quot;font-size: 12px;&quot;&gt;border-top-color&lt;/b&gt;: black;&lt;/div&gt;&lt;/div&gt;" style="text;html=1;strokeColor=none;fillColor=none;align=center;verticalAlign=middle;whiteSpace=wrap;rounded=0;fontSize=12;" vertex="1" parent="1">
          <mxGeometry x="432" y="541" width="170" height="30" as="geometry" />
        </mxCell>
        <mxCell id="RrGyain6pzI4IQnfve1N-23" value="-bottom-&lt;br style=&quot;font-size: 12px;&quot;&gt;-left-&lt;br style=&quot;font-size: 12px;&quot;&gt;&lt;div style=&quot;font-size: 12px;&quot;&gt;&lt;span style=&quot;background-color: initial; font-size: 12px;&quot;&gt;-right-&lt;/span&gt;&lt;/div&gt;" style="text;html=1;strokeColor=none;fillColor=none;align=left;verticalAlign=middle;whiteSpace=wrap;rounded=0;fontSize=12;" vertex="1" parent="1">
          <mxGeometry x="612" y="541" width="60" height="30" as="geometry" />
        </mxCell>
        <mxCell id="RrGyain6pzI4IQnfve1N-24" value="&lt;b style=&quot;border-color: var(--border-color); font-size: 12px; text-align: left;&quot;&gt;outline&lt;/b&gt;: 1px solid black;" style="text;html=1;strokeColor=none;fillColor=none;align=center;verticalAlign=middle;whiteSpace=wrap;rounded=0;fontSize=12;" vertex="1" parent="1">
          <mxGeometry x="440" y="600" width="160" height="20" as="geometry" />
        </mxCell>
        <mxCell id="RrGyain6pzI4IQnfve1N-25" value="&lt;div style=&quot;border-color: var(--border-color); font-size: 12px; text-align: left;&quot;&gt;&lt;span style=&quot;border-color: var(--border-color); font-size: 12px;&quot;&gt;Нет поддержки для отдельных сторон:&lt;br style=&quot;font-size: 12px;&quot;&gt;&lt;/span&gt;&lt;/div&gt;&lt;div style=&quot;border-color: var(--border-color); font-size: 12px; text-align: left;&quot;&gt;&lt;b style=&quot;border-color: var(--border-color); font-size: 12px;&quot;&gt;outline-width&lt;/b&gt;: 2px;&lt;/div&gt;&lt;div style=&quot;border-color: var(--border-color); font-size: 12px; text-align: left;&quot;&gt;&lt;b style=&quot;border-color: var(--border-color); font-size: 12px;&quot;&gt;outline-style&lt;/b&gt;:&amp;nbsp;&lt;span style=&quot;background-color: initial; font-size: 12px;&quot;&gt;solid |&amp;nbsp;&lt;/span&gt;&lt;span style=&quot;background-color: initial; font-size: 12px;&quot;&gt;dashed |&amp;nbsp;&lt;/span&gt;&lt;span style=&quot;background-color: initial; font-size: 12px;&quot;&gt;dotted |&amp;nbsp;&lt;/span&gt;&lt;span style=&quot;background-color: initial; font-size: 12px;&quot;&gt;double&lt;/span&gt;&lt;/div&gt;&lt;div style=&quot;border-color: var(--border-color); font-size: 12px; text-align: left;&quot;&gt;&lt;b style=&quot;border-color: var(--border-color); font-size: 12px;&quot;&gt;outline-color&lt;/b&gt;: black&amp;nbsp; |&amp;nbsp; #FF32D6&lt;/div&gt;" style="text;html=1;strokeColor=none;fillColor=none;align=center;verticalAlign=middle;whiteSpace=wrap;rounded=0;fontSize=12;" vertex="1" parent="1">
          <mxGeometry x="451" y="650" width="249" height="50" as="geometry" />
        </mxCell>
        <mxCell id="RrGyain6pzI4IQnfve1N-26" value="&lt;b style=&quot;border-color: var(--border-color); text-align: left; font-size: 12px;&quot;&gt;outline-offset&lt;/b&gt;: 10px&amp;nbsp; |&amp;nbsp;&amp;nbsp;&lt;span style=&quot;border-color: var(--border-color); text-align: left; background-color: initial; font-size: 12px;&quot;&gt;-20px&lt;/span&gt;" style="text;html=1;strokeColor=none;fillColor=none;align=center;verticalAlign=middle;whiteSpace=wrap;rounded=0;fontSize=12;" vertex="1" parent="1">
          <mxGeometry x="440" y="730" width="179" height="20" as="geometry" />
        </mxCell>
        <mxCell id="RrGyain6pzI4IQnfve1N-27" value="&lt;div style=&quot;border-color: var(--border-color);&quot;&gt;&lt;span style=&quot;background-color: initial;&quot;&gt;&lt;font style=&quot;font-size: 11px;&quot;&gt;(лев верхний угол, прав верх, прав низ, лев низ)&lt;/font&gt;&lt;/span&gt;&lt;br&gt;&lt;/div&gt;&lt;div style=&quot;border-color: var(--border-color); font-size: 12px;&quot;&gt;&lt;b style=&quot;font-size: 12px;&quot;&gt;border-radius&lt;/b&gt;: 10px 20px 30px 40px&lt;br style=&quot;border-color: var(--border-color); font-size: 12px;&quot;&gt;&lt;/div&gt;&lt;div style=&quot;border-color: var(--border-color); font-size: 12px;&quot;&gt;&lt;br style=&quot;border-color: var(--border-color); font-size: 12px;&quot;&gt;&lt;/div&gt;&lt;div style=&quot;border-color: var(--border-color); font-size: 12px;&quot;&gt;&lt;b style=&quot;font-size: 12px;&quot;&gt;border-top-left-radius&lt;/b&gt;: 10px&lt;/div&gt;&lt;div style=&quot;border-color: var(--border-color); font-size: 12px;&quot;&gt;&lt;b style=&quot;font-size: 12px;&quot;&gt;border-top-right-radius&lt;/b&gt;: 20px&lt;/div&gt;&lt;div style=&quot;border-color: var(--border-color); font-size: 12px;&quot;&gt;&lt;b style=&quot;font-size: 12px;&quot;&gt;border-bottom-right-radius&lt;/b&gt;: 30px&lt;/div&gt;&lt;div style=&quot;border-color: var(--border-color); font-size: 12px;&quot;&gt;&lt;b style=&quot;font-size: 12px;&quot;&gt;border-bottom-left-radius&lt;/b&gt;: 40px&lt;/div&gt;" style="text;html=1;strokeColor=none;fillColor=none;align=left;verticalAlign=middle;whiteSpace=wrap;rounded=0;fontSize=12;" vertex="1" parent="1">
          <mxGeometry x="770" y="91" width="250" height="120" as="geometry" />
        </mxCell>
        <mxCell id="RrGyain6pzI4IQnfve1N-28" value="&lt;b style=&quot;border-color: var(--border-color); font-size: 12px;&quot;&gt;border-radius&lt;/b&gt;: 50px;" style="text;html=1;strokeColor=none;fillColor=none;align=left;verticalAlign=middle;whiteSpace=wrap;rounded=0;fontSize=12;" vertex="1" parent="1">
          <mxGeometry x="770" y="63" width="150" height="20" as="geometry" />
        </mxCell>
        <mxCell id="RrGyain6pzI4IQnfve1N-29" value="&lt;div style=&quot;border-color: var(--border-color); font-size: 12px;&quot;&gt;&lt;div style=&quot;border-color: var(--border-color); font-size: 12px;&quot;&gt;&lt;div style=&quot;border-color: var(--border-color); font-size: 12px;&quot;&gt;&lt;b style=&quot;font-size: 12px;&quot;&gt;Структурные&lt;/b&gt;:&amp;nbsp; &amp;nbsp; &amp;nbsp;&amp;nbsp;&lt;br style=&quot;border-color: var(--border-color); font-size: 12px;&quot;&gt;&lt;span style=&quot;font-size: 12px;&quot;&gt;&amp;nbsp; &amp;nbsp; :first-child&amp;nbsp; &amp;nbsp; &amp;nbsp; &amp;nbsp; &amp;nbsp;&lt;/span&gt;&lt;span style=&quot;font-size: 12px;&quot;&gt;:last-child&amp;nbsp; &amp;nbsp; &amp;nbsp; &amp;nbsp;&amp;nbsp;&lt;/span&gt;:only-child&lt;br style=&quot;border-color: var(--border-color); font-size: 12px;&quot;&gt;&lt;span style=&quot;font-size: 12px;&quot;&gt;&amp;nbsp; &amp;nbsp; :nth-child(n)&amp;nbsp; &amp;nbsp; &amp;nbsp; :nth-last-child(n)&lt;/span&gt;&lt;br style=&quot;border-color: var(--border-color); font-size: 12px;&quot;&gt;&amp;nbsp; &amp;nbsp; &amp;nbsp; &amp;nbsp; &amp;nbsp; (odd,&amp;nbsp;&lt;span style=&quot;background-color: initial; font-size: 12px;&quot;&gt;even&lt;/span&gt;&lt;span style=&quot;background-color: initial; font-size: 12px;&quot;&gt;)&lt;/span&gt;&lt;/div&gt;&lt;div style=&quot;border-color: var(--border-color); font-size: 12px;&quot;&gt;&amp;nbsp; &amp;nbsp; &amp;nbsp; &amp;nbsp; &amp;nbsp; (n,&amp;nbsp;&lt;span style=&quot;background-color: initial; font-size: 12px;&quot;&gt;2n,&amp;nbsp;&lt;/span&gt;n+1&lt;span style=&quot;background-color: initial; font-size: 12px;&quot;&gt;) и т.д.&lt;/span&gt;&lt;/div&gt;&lt;div style=&quot;border-color: var(--border-color); font-size: 12px;&quot;&gt;&lt;span style=&quot;font-size: 12px;&quot;&gt;&amp;nbsp; &amp;nbsp; &amp;nbsp; &amp;nbsp; &amp;nbsp; (-n), (-n+4)&lt;/span&gt;&lt;/div&gt;&lt;div style=&quot;border-color: var(--border-color); font-size: 12px;&quot;&gt;&amp;nbsp; &amp;nbsp; &amp;nbsp;:root&lt;br style=&quot;font-size: 12px;&quot;&gt;&lt;/div&gt;&lt;/div&gt;&lt;/div&gt;" style="text;html=1;strokeColor=none;fillColor=none;align=left;verticalAlign=middle;whiteSpace=wrap;rounded=0;fontSize=12;" vertex="1" parent="1">
          <mxGeometry x="771" y="240" width="259" height="104" as="geometry" />
        </mxCell>
        <mxCell id="RrGyain6pzI4IQnfve1N-30" value="&lt;div style=&quot;border-color: var(--border-color); font-size: 12px;&quot;&gt;&lt;div style=&quot;border-color: var(--border-color); font-size: 12px;&quot;&gt;&lt;div style=&quot;border-color: var(--border-color); font-size: 12px;&quot;&gt;&lt;b style=&quot;font-size: 12px;&quot;&gt;Состояний&lt;/b&gt;:&lt;br style=&quot;border-color: var(--border-color); font-size: 12px;&quot;&gt;&lt;span style=&quot;font-size: 12px;&quot;&gt;&amp;nbsp; &amp;nbsp; :hover&amp;nbsp; &amp;nbsp; &amp;nbsp;&lt;/span&gt;&lt;span style=&quot;font-size: 12px;&quot;&gt;:focus&amp;nbsp; &amp;nbsp; &amp;nbsp; &amp;nbsp;&lt;/span&gt;&lt;span style=&quot;font-size: 12px;&quot;&gt;:focus-visible&lt;/span&gt;&lt;br style=&quot;border-color: var(--border-color); font-size: 12px;&quot;&gt;&lt;span style=&quot;font-size: 12px;&quot;&gt;&amp;nbsp; &amp;nbsp; :active&amp;nbsp; &amp;nbsp; &amp;nbsp;&lt;/span&gt;&lt;span style=&quot;font-size: 12px;&quot;&gt;:disabled&amp;nbsp; &amp;nbsp;&amp;nbsp;&lt;/span&gt;&lt;span style=&quot;font-size: 12px;&quot;&gt;:checked&lt;/span&gt;&lt;br style=&quot;border-color: var(--border-color); font-size: 12px;&quot;&gt;&lt;/div&gt;&lt;/div&gt;&lt;/div&gt;" style="text;html=1;strokeColor=none;fillColor=none;align=left;verticalAlign=middle;whiteSpace=wrap;rounded=0;fontSize=12;" vertex="1" parent="1">
          <mxGeometry x="835" y="341" width="200" height="40" as="geometry" />
        </mxCell>
        <mxCell id="RrGyain6pzI4IQnfve1N-31" value=":not" style="text;html=1;strokeColor=none;fillColor=none;align=center;verticalAlign=middle;whiteSpace=wrap;rounded=0;fontSize=12;" vertex="1" parent="1">
          <mxGeometry x="772" y="382" width="30" height="10" as="geometry" />
        </mxCell>
        <mxCell id="RrGyain6pzI4IQnfve1N-32" value="&lt;div style=&quot;border-color: var(--border-color); font-size: 12px;&quot;&gt;&lt;div style=&quot;border-color: var(--border-color); font-size: 12px;&quot;&gt;&lt;div style=&quot;border-color: var(--border-color); font-size: 12px;&quot;&gt;&lt;span style=&quot;font-size: 12px;&quot;&gt;&amp;nbsp; &amp;nbsp;&lt;/span&gt;&lt;span style=&quot;font-size: 12px;&quot;&gt;&lt;b style=&quot;font-size: 12px;&quot;&gt;Специфичные&lt;/b&gt;:&lt;/span&gt;&lt;br style=&quot;border-color: var(--border-color); font-size: 12px;&quot;&gt;&lt;span style=&quot;font-size: 12px;&quot;&gt;&amp;nbsp; &amp;nbsp; &amp;nbsp; ::placeholder&amp;nbsp; &amp;nbsp; &amp;nbsp;&amp;nbsp;&lt;/span&gt;&lt;span style=&quot;font-size: 12px;&quot;&gt;::file-selector-button&lt;/span&gt;&lt;br style=&quot;border-color: var(--border-color); font-size: 12px;&quot;&gt;&lt;span style=&quot;font-size: 12px;&quot;&gt;&amp;nbsp; &amp;nbsp; &amp;nbsp; ::first-letter&amp;nbsp; &amp;nbsp; &amp;nbsp;&amp;nbsp;&lt;/span&gt;&lt;span style=&quot;font-size: 12px;&quot;&gt;::first-line&lt;/span&gt;&lt;br style=&quot;border-color: var(--border-color); font-size: 12px;&quot;&gt;&lt;span style=&quot;font-size: 12px;&quot;&gt;&amp;nbsp; &amp;nbsp; &amp;nbsp; ::selection&amp;nbsp; &amp;nbsp; &amp;nbsp; &amp;nbsp;&lt;/span&gt;&lt;span style=&quot;font-size: 12px;&quot;&gt;::marker&lt;/span&gt;&lt;br style=&quot;font-size: 12px;&quot;&gt;&lt;/div&gt;&lt;/div&gt;&lt;/div&gt;" style="text;html=1;strokeColor=none;fillColor=none;align=left;verticalAlign=middle;whiteSpace=wrap;rounded=0;fontSize=12;" vertex="1" parent="1">
          <mxGeometry x="760" y="463" width="270" height="60" as="geometry" />
        </mxCell>
        <mxCell id="RrGyain6pzI4IQnfve1N-33" value="&lt;div style=&quot;border-color: var(--border-color); font-size: 12px;&quot;&gt;&lt;div style=&quot;border-color: var(--border-color); font-size: 12px;&quot;&gt;&lt;div style=&quot;border-color: var(--border-color); font-size: 12px;&quot;&gt;&lt;b style=&quot;font-size: 12px;&quot;&gt;Универсальные&lt;/b&gt;&amp;nbsp; &amp;nbsp;&lt;span style=&quot;font-size: 12px;&quot;&gt;::before&amp;nbsp; &amp;nbsp;::after&lt;/span&gt;&lt;br style=&quot;font-size: 12px;&quot;&gt;&lt;/div&gt;&lt;/div&gt;&lt;/div&gt;" style="text;html=1;strokeColor=none;fillColor=none;align=left;verticalAlign=middle;whiteSpace=wrap;rounded=0;fontSize=12;" vertex="1" parent="1">
          <mxGeometry x="770" y="420" width="262" height="20" as="geometry" />
        </mxCell>
        <mxCell id="RrGyain6pzI4IQnfve1N-34" value="&lt;div style=&quot;border-color: var(--border-color); font-size: 12px;&quot;&gt;&lt;div style=&quot;border-color: var(--border-color); font-size: 12px;&quot;&gt;&lt;div style=&quot;border-color: var(--border-color); font-size: 12px;&quot;&gt;У всех есть свойство &lt;b style=&quot;font-size: 12px;&quot;&gt;content&lt;/b&gt;, задающее содержимое элемента.&lt;/div&gt;&lt;/div&gt;&lt;/div&gt;" style="text;html=1;strokeColor=none;fillColor=none;align=left;verticalAlign=middle;whiteSpace=wrap;rounded=0;fontSize=12;" vertex="1" parent="1">
          <mxGeometry x="768" y="550" width="252" height="20" as="geometry" />
        </mxCell>
        <mxCell id="RrGyain6pzI4IQnfve1N-35" value="&lt;div style=&quot;border-color: var(--border-color); font-size: 11px;&quot;&gt;&lt;div style=&quot;border-color: var(--border-color); font-size: 11px;&quot;&gt;&lt;div style=&quot;border-color: var(--border-color); font-size: 11px;&quot;&gt;&lt;b style=&quot;font-size: 11px;&quot;&gt;padding&lt;/b&gt;: 10px (все)&lt;br style=&quot;border-color: var(--border-color); font-size: 11px;&quot;&gt;&lt;/div&gt;&lt;div style=&quot;border-color: var(--border-color); font-size: 11px;&quot;&gt;&lt;b style=&quot;font-size: 11px;&quot;&gt;padding&lt;/b&gt;: 10px 20px&amp;nbsp; (верх+низ, лево+право)&lt;/div&gt;&lt;div style=&quot;border-color: var(--border-color); font-size: 11px;&quot;&gt;&lt;b style=&quot;font-size: 11px;&quot;&gt;padding&lt;/b&gt;: 10px 20px 30px (верх, лево+право, низ)&lt;/div&gt;&lt;div style=&quot;border-color: var(--border-color); font-size: 11px;&quot;&gt;&lt;b style=&quot;font-size: 11px;&quot;&gt;padding&lt;/b&gt;: 10px 20px 30px 40px (вер,пра,низ,лев)&lt;/div&gt;&lt;div style=&quot;border-color: var(--border-color); font-size: 11px;&quot;&gt;&lt;br style=&quot;border-color: var(--border-color); font-size: 11px;&quot;&gt;&lt;/div&gt;&lt;div style=&quot;border-color: var(--border-color); font-size: 11px;&quot;&gt;&lt;b style=&quot;font-size: 11px;&quot;&gt;padding-block&lt;/b&gt;: 10px;&amp;nbsp; (верх + низ)&lt;/div&gt;&lt;div style=&quot;border-color: var(--border-color); font-size: 11px;&quot;&gt;&lt;b style=&quot;font-size: 11px;&quot;&gt;padding-inline&lt;/b&gt;: 10px;&amp;nbsp; (лево + право)&lt;/div&gt;&lt;div style=&quot;border-color: var(--border-color); font-size: 11px;&quot;&gt;&lt;br style=&quot;border-color: var(--border-color); font-size: 11px;&quot;&gt;&lt;/div&gt;&lt;div style=&quot;border-color: var(--border-color); font-size: 11px;&quot;&gt;&lt;b style=&quot;font-size: 11px;&quot;&gt;padding-top,&amp;nbsp;&lt;/b&gt;&lt;b style=&quot;background-color: initial; font-size: 11px;&quot;&gt;padding-bottom&lt;/b&gt;&lt;span style=&quot;background-color: initial; font-size: 11px;&quot;&gt;,&lt;/span&gt;&lt;/div&gt;&lt;div style=&quot;border-color: var(--border-color); font-size: 11px;&quot;&gt;&lt;b style=&quot;font-size: 11px;&quot;&gt;padding-left&lt;/b&gt;,&amp;nbsp;&lt;b style=&quot;background-color: initial; font-size: 11px;&quot;&gt;padding-right&lt;/b&gt;&lt;span style=&quot;background-color: initial; font-size: 11px;&quot;&gt;: 10px;&lt;/span&gt;&lt;/div&gt;&lt;/div&gt;&lt;/div&gt;" style="text;html=1;strokeColor=none;fillColor=none;align=left;verticalAlign=middle;whiteSpace=wrap;rounded=0;fontSize=11;" vertex="1" parent="1">
          <mxGeometry x="764" y="630" width="260" height="120" as="geometry" />
        </mxCell>
        <mxCell id="RrGyain6pzI4IQnfve1N-36" value="&lt;div style=&quot;border-color: var(--border-color); font-size: 12px;&quot;&gt;&lt;div style=&quot;border-color: var(--border-color); font-size: 12px;&quot;&gt;&lt;div style=&quot;border-color: var(--border-color); font-size: 12px;&quot;&gt;&lt;b style=&quot;font-size: 12px;&quot;&gt;margin&lt;/b&gt;: аналогично&lt;/div&gt;&lt;/div&gt;&lt;/div&gt;" style="text;html=1;strokeColor=none;fillColor=none;align=left;verticalAlign=middle;whiteSpace=wrap;rounded=0;fontSize=12;" vertex="1" parent="1">
          <mxGeometry x="764" y="600" width="180" height="10" as="geometry" />
        </mxCell>
        <mxCell id="RrGyain6pzI4IQnfve1N-37" value="" style="rounded=0;whiteSpace=wrap;html=1;" vertex="1" parent="1">
          <mxGeometry x="100.5" y="880" width="319.5" height="179" as="geometry" />
        </mxCell>
        <mxCell id="RrGyain6pzI4IQnfve1N-38" value="" style="ellipse;whiteSpace=wrap;html=1;aspect=fixed;" vertex="1" parent="1">
          <mxGeometry x="385" y="949" width="20.58" height="20.58" as="geometry" />
        </mxCell>
        <mxCell id="RrGyain6pzI4IQnfve1N-39" value="тени" style="text;html=1;strokeColor=none;fillColor=none;align=center;verticalAlign=middle;whiteSpace=wrap;rounded=0;fontSize=12;rotation=-90;" vertex="1" parent="1">
          <mxGeometry x="21.560000000000002" y="965.3600000000001" width="177" height="13.12" as="geometry" />
        </mxCell>
        <mxCell id="RrGyain6pzI4IQnfve1N-46" value="" style="rounded=0;whiteSpace=wrap;html=1;" vertex="1" parent="1">
          <mxGeometry x="100" y="1059" width="319.5" height="179" as="geometry" />
        </mxCell>
        <mxCell id="RrGyain6pzI4IQnfve1N-47" value="" style="ellipse;whiteSpace=wrap;html=1;aspect=fixed;" vertex="1" parent="1">
          <mxGeometry x="384.5" y="1128" width="20.58" height="20.58" as="geometry" />
        </mxCell>
        <mxCell id="RrGyain6pzI4IQnfve1N-48" value="" style="rounded=0;whiteSpace=wrap;html=1;" vertex="1" parent="1">
          <mxGeometry x="100" y="1238" width="319.5" height="179" as="geometry" />
        </mxCell>
        <mxCell id="RrGyain6pzI4IQnfve1N-49" value="" style="ellipse;whiteSpace=wrap;html=1;aspect=fixed;" vertex="1" parent="1">
          <mxGeometry x="384.5" y="1307" width="20.58" height="20.58" as="geometry" />
        </mxCell>
        <mxCell id="RrGyain6pzI4IQnfve1N-50" value="" style="rounded=0;whiteSpace=wrap;html=1;" vertex="1" parent="1">
          <mxGeometry x="100" y="1417" width="319.5" height="179" as="geometry" />
        </mxCell>
        <mxCell id="RrGyain6pzI4IQnfve1N-51" value="" style="ellipse;whiteSpace=wrap;html=1;aspect=fixed;" vertex="1" parent="1">
          <mxGeometry x="384.5" y="1486" width="20.58" height="20.58" as="geometry" />
        </mxCell>
        <mxCell id="RrGyain6pzI4IQnfve1N-52" value="" style="endArrow=none;html=1;rounded=0;" edge="1" parent="1">
          <mxGeometry width="50" height="50" relative="1" as="geometry">
            <mxPoint x="120" y="1640" as="sourcePoint" />
            <mxPoint x="120" y="850" as="targetPoint" />
          </mxGeometry>
        </mxCell>
        <mxCell id="RrGyain6pzI4IQnfve1N-53" value="" style="rounded=0;whiteSpace=wrap;html=1;" vertex="1" parent="1">
          <mxGeometry x="419.94" y="880" width="319.5" height="179" as="geometry" />
        </mxCell>
        <mxCell id="RrGyain6pzI4IQnfve1N-54" value="" style="ellipse;whiteSpace=wrap;html=1;aspect=fixed;" vertex="1" parent="1">
          <mxGeometry x="704.44" y="949" width="20.58" height="20.58" as="geometry" />
        </mxCell>
        <mxCell id="RrGyain6pzI4IQnfve1N-55" value="селекторы (3)" style="text;html=1;strokeColor=none;fillColor=none;align=center;verticalAlign=middle;whiteSpace=wrap;rounded=0;fontSize=12;rotation=-90;" vertex="1" parent="1">
          <mxGeometry x="341" y="965.3600000000001" width="177" height="13.12" as="geometry" />
        </mxCell>
        <mxCell id="RrGyain6pzI4IQnfve1N-56" value="" style="rounded=0;whiteSpace=wrap;html=1;" vertex="1" parent="1">
          <mxGeometry x="419.44" y="1059" width="319.5" height="179" as="geometry" />
        </mxCell>
        <mxCell id="RrGyain6pzI4IQnfve1N-57" value="" style="ellipse;whiteSpace=wrap;html=1;aspect=fixed;" vertex="1" parent="1">
          <mxGeometry x="703.94" y="1128" width="20.58" height="20.58" as="geometry" />
        </mxCell>
        <mxCell id="RrGyain6pzI4IQnfve1N-58" value="" style="rounded=0;whiteSpace=wrap;html=1;" vertex="1" parent="1">
          <mxGeometry x="419.44" y="1238" width="319.5" height="179" as="geometry" />
        </mxCell>
        <mxCell id="RrGyain6pzI4IQnfve1N-59" value="" style="ellipse;whiteSpace=wrap;html=1;aspect=fixed;" vertex="1" parent="1">
          <mxGeometry x="703.94" y="1307" width="20.58" height="20.58" as="geometry" />
        </mxCell>
        <mxCell id="RrGyain6pzI4IQnfve1N-60" value="" style="rounded=0;whiteSpace=wrap;html=1;" vertex="1" parent="1">
          <mxGeometry x="419.44" y="1417" width="319.5" height="179" as="geometry" />
        </mxCell>
        <mxCell id="RrGyain6pzI4IQnfve1N-61" value="" style="ellipse;whiteSpace=wrap;html=1;aspect=fixed;" vertex="1" parent="1">
          <mxGeometry x="703.94" y="1486" width="20.58" height="20.58" as="geometry" />
        </mxCell>
        <mxCell id="RrGyain6pzI4IQnfve1N-62" value="" style="endArrow=none;html=1;rounded=0;" edge="1" parent="1">
          <mxGeometry width="50" height="50" relative="1" as="geometry">
            <mxPoint x="439.44" y="1640" as="sourcePoint" />
            <mxPoint x="439.44" y="850" as="targetPoint" />
          </mxGeometry>
        </mxCell>
        <mxCell id="RrGyain6pzI4IQnfve1N-63" value="" style="rounded=0;whiteSpace=wrap;html=1;" vertex="1" parent="1">
          <mxGeometry x="738.94" y="880" width="319.5" height="179" as="geometry" />
        </mxCell>
        <mxCell id="RrGyain6pzI4IQnfve1N-64" value="" style="ellipse;whiteSpace=wrap;html=1;aspect=fixed;" vertex="1" parent="1">
          <mxGeometry x="1023.44" y="949" width="20.58" height="20.58" as="geometry" />
        </mxCell>
        <mxCell id="RrGyain6pzI4IQnfve1N-65" value="тема" style="text;html=1;strokeColor=none;fillColor=none;align=center;verticalAlign=middle;whiteSpace=wrap;rounded=0;fontSize=12;rotation=-90;" vertex="1" parent="1">
          <mxGeometry x="660" y="965.3600000000001" width="177" height="13.12" as="geometry" />
        </mxCell>
        <mxCell id="RrGyain6pzI4IQnfve1N-66" value="" style="rounded=0;whiteSpace=wrap;html=1;" vertex="1" parent="1">
          <mxGeometry x="738.44" y="1059" width="319.5" height="179" as="geometry" />
        </mxCell>
        <mxCell id="RrGyain6pzI4IQnfve1N-67" value="" style="ellipse;whiteSpace=wrap;html=1;aspect=fixed;" vertex="1" parent="1">
          <mxGeometry x="1022.94" y="1128" width="20.58" height="20.58" as="geometry" />
        </mxCell>
        <mxCell id="RrGyain6pzI4IQnfve1N-68" value="" style="rounded=0;whiteSpace=wrap;html=1;" vertex="1" parent="1">
          <mxGeometry x="738.44" y="1238" width="319.5" height="179" as="geometry" />
        </mxCell>
        <mxCell id="RrGyain6pzI4IQnfve1N-69" value="" style="ellipse;whiteSpace=wrap;html=1;aspect=fixed;" vertex="1" parent="1">
          <mxGeometry x="1022.94" y="1307" width="20.58" height="20.58" as="geometry" />
        </mxCell>
        <mxCell id="RrGyain6pzI4IQnfve1N-70" value="" style="rounded=0;whiteSpace=wrap;html=1;" vertex="1" parent="1">
          <mxGeometry x="738.44" y="1417" width="319.5" height="179" as="geometry" />
        </mxCell>
        <mxCell id="RrGyain6pzI4IQnfve1N-71" value="" style="ellipse;whiteSpace=wrap;html=1;aspect=fixed;" vertex="1" parent="1">
          <mxGeometry x="1022.94" y="1486" width="20.58" height="20.58" as="geometry" />
        </mxCell>
        <mxCell id="RrGyain6pzI4IQnfve1N-72" value="" style="endArrow=none;html=1;rounded=0;" edge="1" parent="1">
          <mxGeometry width="50" height="50" relative="1" as="geometry">
            <mxPoint x="758.44" y="1640" as="sourcePoint" />
            <mxPoint x="758.44" y="850" as="targetPoint" />
          </mxGeometry>
        </mxCell>
        <mxCell id="RrGyain6pzI4IQnfve1N-73" value="подключение стилей" style="text;html=1;strokeColor=none;fillColor=none;align=center;verticalAlign=middle;whiteSpace=wrap;rounded=0;fontSize=12;rotation=-90;" vertex="1" parent="1">
          <mxGeometry x="340" y="1139" width="177" height="13.12" as="geometry" />
        </mxCell>
        <mxCell id="RrGyain6pzI4IQnfve1N-74" value="тема" style="text;html=1;strokeColor=none;fillColor=none;align=center;verticalAlign=middle;whiteSpace=wrap;rounded=0;fontSize=12;rotation=-90;" vertex="1" parent="1">
          <mxGeometry x="660" y="1139" width="177" height="13.12" as="geometry" />
        </mxCell>
        <mxCell id="RrGyain6pzI4IQnfve1N-75" value="единицы измерения" style="text;html=1;strokeColor=none;fillColor=none;align=center;verticalAlign=middle;whiteSpace=wrap;rounded=0;fontSize=12;rotation=-90;" vertex="1" parent="1">
          <mxGeometry x="20" y="1139" width="177" height="13.12" as="geometry" />
        </mxCell>
        <mxCell id="RrGyain6pzI4IQnfve1N-76" value="тема" style="text;html=1;strokeColor=none;fillColor=none;align=center;verticalAlign=middle;whiteSpace=wrap;rounded=0;fontSize=12;rotation=-90;" vertex="1" parent="1">
          <mxGeometry x="660" y="1319" width="177" height="13.12" as="geometry" />
        </mxCell>
        <mxCell id="RrGyain6pzI4IQnfve1N-77" value="тема" style="text;html=1;strokeColor=none;fillColor=none;align=center;verticalAlign=middle;whiteSpace=wrap;rounded=0;fontSize=12;rotation=-90;" vertex="1" parent="1">
          <mxGeometry x="660" y="1492.6399999999999" width="177" height="13.12" as="geometry" />
        </mxCell>
        <mxCell id="RrGyain6pzI4IQnfve1N-78" value="тема" style="text;html=1;strokeColor=none;fillColor=none;align=center;verticalAlign=middle;whiteSpace=wrap;rounded=0;fontSize=12;rotation=-90;" vertex="1" parent="1">
          <mxGeometry x="340" y="1319" width="177" height="13.12" as="geometry" />
        </mxCell>
        <mxCell id="RrGyain6pzI4IQnfve1N-79" value="тема" style="text;html=1;strokeColor=none;fillColor=none;align=center;verticalAlign=middle;whiteSpace=wrap;rounded=0;fontSize=12;rotation=-90;" vertex="1" parent="1">
          <mxGeometry x="340" y="1492.6399999999999" width="177" height="13.12" as="geometry" />
        </mxCell>
        <mxCell id="RrGyain6pzI4IQnfve1N-80" value="селекторы (1)" style="text;html=1;strokeColor=none;fillColor=none;align=center;verticalAlign=middle;whiteSpace=wrap;rounded=0;fontSize=12;rotation=-90;" vertex="1" parent="1">
          <mxGeometry x="20" y="1319" width="177" height="13.12" as="geometry" />
        </mxCell>
        <mxCell id="RrGyain6pzI4IQnfve1N-81" value="селекторы (2)" style="text;html=1;strokeColor=none;fillColor=none;align=center;verticalAlign=middle;whiteSpace=wrap;rounded=0;fontSize=12;rotation=-90;" vertex="1" parent="1">
          <mxGeometry x="20" y="1492.6399999999999" width="177" height="13.12" as="geometry" />
        </mxCell>
        <mxCell id="RrGyain6pzI4IQnfve1N-115" value="&lt;b style=&quot;font-size: 12px;&quot;&gt;box-shadow&lt;/b&gt;: &lt;br style=&quot;font-size: 12px;&quot;&gt;&amp;nbsp; &amp;nbsp; 5px 10px 3px&lt;br style=&quot;font-size: 12px;&quot;&gt;&amp;nbsp; &amp;nbsp; 15px &lt;br style=&quot;font-size: 12px;&quot;&gt;&amp;nbsp; &amp;nbsp; rgb(0 0 255 / 0.5)&lt;br style=&quot;font-size: 12px;&quot;&gt;&amp;nbsp; &amp;nbsp; inset" style="text;html=1;strokeColor=none;fillColor=none;align=left;verticalAlign=middle;whiteSpace=wrap;rounded=0;fontSize=12;" vertex="1" parent="1">
          <mxGeometry x="140" y="900" width="180" height="60" as="geometry" />
        </mxCell>
        <mxCell id="RrGyain6pzI4IQnfve1N-116" value="Смещение x,&amp;nbsp; смещение y, размытие&lt;br style=&quot;font-size: 12px;&quot;&gt;Размер&lt;br style=&quot;font-size: 12px;&quot;&gt;Цвет / коэф. прозрачности&lt;br style=&quot;border-color: var(--border-color); font-size: 12px;&quot;&gt;Направление внутрь" style="text;html=1;strokeColor=none;fillColor=none;align=left;verticalAlign=middle;whiteSpace=wrap;rounded=0;fontSize=12;" vertex="1" parent="1">
          <mxGeometry x="140" y="1000" width="220" height="30" as="geometry" />
        </mxCell>
        <mxCell id="RrGyain6pzI4IQnfve1N-117" value="&lt;b style=&quot;font-size: 12px;&quot;&gt;Относительные&lt;/b&gt;&lt;br style=&quot;border-color: var(--border-color); font-size: 12px;&quot;&gt;&lt;span style=&quot;font-size: 12px;&quot;&gt;&amp;nbsp; &amp;nbsp; em&lt;/span&gt;&lt;br style=&quot;border-color: var(--border-color); font-size: 12px;&quot;&gt;&lt;span style=&quot;font-size: 12px;&quot;&gt;&amp;nbsp; &amp;nbsp;&amp;nbsp;rem&lt;/span&gt;&lt;br style=&quot;border-color: var(--border-color); font-size: 12px;&quot;&gt;&lt;span style=&quot;font-size: 12px;&quot;&gt;&amp;nbsp; &amp;nbsp;&amp;nbsp;vw, vh&lt;/span&gt;&lt;br style=&quot;border-color: var(--border-color); font-size: 12px;&quot;&gt;&lt;span style=&quot;font-size: 12px;&quot;&gt;&amp;nbsp; &amp;nbsp;&amp;nbsp;%&lt;br style=&quot;font-size: 12px;&quot;&gt;&lt;/span&gt;&lt;br style=&quot;border-color: var(--border-color); font-size: 12px;&quot;&gt;&lt;span style=&quot;font-size: 12px;&quot;&gt;&lt;b style=&quot;font-size: 12px;&quot;&gt;Абсолютные&lt;/b&gt;&lt;/span&gt;&lt;br style=&quot;border-color: var(--border-color); font-size: 12px;&quot;&gt;&lt;span style=&quot;font-size: 12px;&quot;&gt;&amp;nbsp; &amp;nbsp; px&lt;/span&gt;" style="text;html=1;strokeColor=none;fillColor=none;align=left;verticalAlign=middle;whiteSpace=wrap;rounded=0;fontSize=12;" vertex="1" parent="1">
          <mxGeometry x="140" y="1090" width="130" height="100" as="geometry" />
        </mxCell>
        <mxCell id="RrGyain6pzI4IQnfve1N-118" value="&lt;b style=&quot;font-size: 12px;&quot;&gt;По тегу&amp;nbsp;&amp;nbsp;&lt;/b&gt;&amp;nbsp;div, p, h1 и т.д." style="text;html=1;strokeColor=none;fillColor=none;align=center;verticalAlign=middle;whiteSpace=wrap;rounded=0;fontSize=12;" vertex="1" parent="1">
          <mxGeometry x="116" y="1251" width="170" height="20" as="geometry" />
        </mxCell>
        <mxCell id="RrGyain6pzI4IQnfve1N-119" value="&lt;b style=&quot;font-size: 12px;&quot;&gt;Вложенность тегов&lt;/b&gt;&lt;br style=&quot;font-size: 12px;&quot;&gt;&amp;nbsp; &amp;nbsp; section p&lt;br style=&quot;border-color: var(--border-color); font-size: 12px;&quot;&gt;&lt;span style=&quot;font-size: 12px;&quot;&gt;&amp;nbsp; &amp;nbsp; section &amp;gt; p&lt;/span&gt;" style="text;html=1;strokeColor=none;fillColor=none;align=left;verticalAlign=middle;whiteSpace=wrap;rounded=0;fontSize=12;" vertex="1" parent="1">
          <mxGeometry x="133" y="1287" width="170" height="45" as="geometry" />
        </mxCell>
        <mxCell id="RrGyain6pzI4IQnfve1N-120" value="&lt;b style=&quot;font-size: 12px;&quot;&gt;Смежность селекторов, лежащих на одном уровне вложенности&lt;/b&gt;&lt;br style=&quot;border-color: var(--border-color); font-size: 12px;&quot;&gt;&lt;span style=&quot;font-size: 12px;&quot;&gt;&amp;nbsp; &amp;nbsp; h2 + p&lt;/span&gt;&lt;br style=&quot;border-color: var(--border-color); font-size: 12px;&quot;&gt;&lt;span style=&quot;font-size: 12px;&quot;&gt;&amp;nbsp; &amp;nbsp; h2 ~ p&lt;/span&gt;" style="text;html=1;strokeColor=none;fillColor=none;align=left;verticalAlign=middle;whiteSpace=wrap;rounded=0;fontSize=12;" vertex="1" parent="1">
          <mxGeometry x="132" y="1340" width="280" height="70" as="geometry" />
        </mxCell>
        <mxCell id="RrGyain6pzI4IQnfve1N-121" value="&lt;b style=&quot;font-size: 12px;&quot;&gt;По классу&lt;/b&gt;&amp;nbsp;.klass1" style="text;html=1;strokeColor=none;fillColor=none;align=left;verticalAlign=middle;whiteSpace=wrap;rounded=0;fontSize=12;" vertex="1" parent="1">
          <mxGeometry x="130" y="1421" width="162" height="20" as="geometry" />
        </mxCell>
        <mxCell id="RrGyain6pzI4IQnfve1N-122" value="&lt;b style=&quot;font-size: 12px;&quot;&gt;Комбин классов (без пробела)&amp;nbsp;&amp;nbsp;&lt;br style=&quot;font-size: 12px;&quot;&gt;&lt;/b&gt;&amp;nbsp; &amp;nbsp; &amp;nbsp;.klass1.klass2&amp;nbsp;" style="text;html=1;strokeColor=none;fillColor=none;align=left;verticalAlign=middle;whiteSpace=wrap;rounded=0;fontSize=12;" vertex="1" parent="1">
          <mxGeometry x="130" y="1453" width="252" height="20" as="geometry" />
        </mxCell>
        <mxCell id="RrGyain6pzI4IQnfve1N-123" value="&lt;b style=&quot;font-size: 12px;&quot;&gt;По идентификатору&lt;/b&gt;&amp;nbsp; #foobar" style="text;html=1;strokeColor=none;fillColor=none;align=left;verticalAlign=middle;whiteSpace=wrap;rounded=0;fontSize=12;" vertex="1" parent="1">
          <mxGeometry x="130" y="1483" width="232" height="20" as="geometry" />
        </mxCell>
        <mxCell id="RrGyain6pzI4IQnfve1N-124" value="&lt;b style=&quot;font-size: 12px;&quot;&gt;Ко всем&amp;nbsp; &lt;/b&gt;*" style="text;html=1;strokeColor=none;fillColor=none;align=left;verticalAlign=middle;whiteSpace=wrap;rounded=0;fontSize=12;" vertex="1" parent="1">
          <mxGeometry x="330" y="1422" width="80" height="20" as="geometry" />
        </mxCell>
        <mxCell id="RrGyain6pzI4IQnfve1N-125" value="&lt;b style=&quot;font-size: 12px;&quot;&gt;По наличию атрибута&lt;/b&gt;&amp;nbsp; [href]" style="text;html=1;strokeColor=none;fillColor=none;align=left;verticalAlign=middle;whiteSpace=wrap;rounded=0;fontSize=12;" vertex="1" parent="1">
          <mxGeometry x="130" y="1514" width="222" height="20" as="geometry" />
        </mxCell>
        <mxCell id="RrGyain6pzI4IQnfve1N-126" value="&lt;b style=&quot;font-size: 12px;&quot;&gt;По значению атрибута:&amp;nbsp; &amp;nbsp;&lt;/b&gt;[href=&quot;#foobar&quot;]&lt;b style=&quot;font-size: 12px;&quot;&gt;&lt;br style=&quot;font-size: 12px;&quot;&gt;&lt;/b&gt;&lt;font style=&quot;font-size: 12px;&quot;&gt;[href*=&quot;ax&quot;]&amp;nbsp; &amp;nbsp; [href^=&quot;ax&quot;]&amp;nbsp; &amp;nbsp; [href$=&quot;ax&quot;]&lt;br style=&quot;border-color: var(--border-color); font-size: 12px;&quot;&gt;[href~=&quot;ax&quot;]&amp;nbsp; &amp;nbsp;[href|=&quot;ax&quot;]&amp;nbsp; &amp;nbsp;[href=&quot;ax&quot; i]&lt;/font&gt;&lt;b style=&quot;font-size: 12px;&quot;&gt;&lt;br style=&quot;font-size: 12px;&quot;&gt;&lt;/b&gt;" style="text;html=1;strokeColor=none;fillColor=none;align=left;verticalAlign=middle;whiteSpace=wrap;rounded=0;fontSize=12;" vertex="1" parent="1">
          <mxGeometry x="130" y="1541" width="280" height="50" as="geometry" />
        </mxCell>
        <mxCell id="RrGyain6pzI4IQnfve1N-127" value="&lt;b style=&quot;font-size: 12px;&quot;&gt;Группировка селекторов&lt;/b&gt;&lt;br style=&quot;font-size: 12px;&quot;&gt;&amp;nbsp; &amp;nbsp; &lt;i style=&quot;font-size: 12px;&quot;&gt;Независимая&amp;nbsp;&lt;/i&gt;(через запятую)&lt;span style=&quot;font-size: 12px;&quot;&gt;&lt;br style=&quot;font-size: 12px;&quot;&gt;&lt;b style=&quot;font-size: 12px;&quot;&gt;&amp;nbsp; &amp;nbsp; &amp;nbsp; &amp;nbsp;&amp;nbsp;&lt;/b&gt;&lt;/span&gt;s1, s2&amp;nbsp;&lt;br style=&quot;font-size: 12px;&quot;&gt;&amp;nbsp; &amp;nbsp; &lt;i style=&quot;font-size: 12px;&quot;&gt;Комбинация &lt;/i&gt;(без пробелов)&lt;br style=&quot;border-color: var(--border-color); font-size: 12px;&quot;&gt;&lt;span style=&quot;font-size: 12px;&quot;&gt;&amp;nbsp; &amp;nbsp; &amp;nbsp; &amp;nbsp;.s1#s2&amp;nbsp; \&amp;nbsp;&amp;nbsp;&lt;/span&gt;.s1.s2&amp;nbsp; \&amp;nbsp;&amp;nbsp;&lt;span style=&quot;font-size: 12px;&quot;&gt;p#s1.s2&amp;nbsp; &amp;nbsp;&lt;/span&gt;&lt;span style=&quot;font-size: 12px;&quot;&gt;и т.д.&lt;/span&gt;&lt;b style=&quot;font-size: 12px;&quot;&gt;&lt;br style=&quot;font-size: 12px;&quot;&gt;&lt;/b&gt;" style="text;html=1;strokeColor=none;fillColor=none;align=left;verticalAlign=middle;whiteSpace=wrap;rounded=0;fontSize=12;" vertex="1" parent="1">
          <mxGeometry x="450" y="889" width="260" height="80" as="geometry" />
        </mxCell>
        <mxCell id="RrGyain6pzI4IQnfve1N-128" value="&lt;b style=&quot;font-size: 12px;&quot;&gt;Очки специфичности&lt;/b&gt;:&lt;br style=&quot;border-color: var(--border-color); font-size: 12px;&quot;&gt;&lt;span style=&quot;font-size: 12px;&quot;&gt;-Идентификатор 100&lt;/span&gt;&lt;br style=&quot;border-color: var(--border-color); font-size: 12px;&quot;&gt;&lt;span style=&quot;font-size: 12px;&quot;&gt;-Класс или атрибут 10&lt;/span&gt;&lt;br style=&quot;border-color: var(--border-color); font-size: 12px;&quot;&gt;&lt;span style=&quot;font-size: 12px;&quot;&gt;-Тег 1&lt;br style=&quot;font-size: 12px;&quot;&gt;&lt;/span&gt;-Если комбинация - суммир." style="text;html=1;strokeColor=none;fillColor=none;align=left;verticalAlign=middle;whiteSpace=wrap;rounded=0;fontSize=12;" vertex="1" parent="1">
          <mxGeometry x="450" y="980" width="160" height="70" as="geometry" />
        </mxCell>
        <mxCell id="RrGyain6pzI4IQnfve1N-129" value="&lt;span style=&quot;border-color: var(--border-color); font-size: 12px;&quot;&gt;У какого селектора получится выше число, тот и применится&lt;/span&gt;" style="text;html=1;strokeColor=none;fillColor=none;align=left;verticalAlign=middle;whiteSpace=wrap;rounded=0;fontSize=12;" vertex="1" parent="1">
          <mxGeometry x="619" y="985" width="110" height="45" as="geometry" />
        </mxCell>
        <mxCell id="RrGyain6pzI4IQnfve1N-130" value="&lt;div style=&quot;border-color: var(--border-color); text-align: left; font-size: 12px;&quot;&gt;&amp;lt;html&amp;gt;&lt;/div&gt;&lt;div style=&quot;border-color: var(--border-color); text-align: left; font-size: 12px;&quot;&gt;&amp;nbsp; &amp;lt;head&amp;gt;&lt;/div&gt;&lt;div style=&quot;border-color: var(--border-color); text-align: left; font-size: 12px;&quot;&gt;&amp;nbsp; &amp;nbsp; &amp;lt;link rel=&quot;stylesheet&quot; href=&quot;./css/styles.css&quot;&amp;gt;&lt;/div&gt;&lt;div style=&quot;border-color: var(--border-color); text-align: left; font-size: 12px;&quot;&gt;&amp;nbsp; &amp;lt;/head&amp;gt;&lt;/div&gt;" style="text;html=1;strokeColor=none;fillColor=none;align=center;verticalAlign=middle;whiteSpace=wrap;rounded=0;fontSize=12;" vertex="1" parent="1">
          <mxGeometry x="445" y="1120" width="260" height="60" as="geometry" />
        </mxCell>
        <mxCell id="RrGyain6pzI4IQnfve1N-131" value="&lt;div style=&quot;border-color: var(--border-color); font-size: 12px;&quot;&gt;&lt;b style=&quot;border-color: var(--border-color); font-size: 12px;&quot;&gt;opacity:&amp;nbsp;&amp;nbsp;&lt;/b&gt;0 ..&amp;nbsp;&lt;u style=&quot;font-size: 12px;&quot;&gt;1&lt;/u&gt;&amp;nbsp; (1 - непрозрачное)&lt;br style=&quot;font-size: 12px;&quot;&gt;&lt;/div&gt;" style="text;html=1;strokeColor=none;fillColor=none;align=left;verticalAlign=middle;whiteSpace=wrap;rounded=0;fontSize=12;" vertex="1" parent="1">
          <mxGeometry x="460" y="133" width="200" height="20" as="geometry" />
        </mxCell>
      </root>
    </mxGraphModel>
  </diagram>
</mxfile>
